<mxfile host="app.diagrams.net" modified="2024-05-24T06:56:56.839Z" agent="Mozilla/5.0 (Windows NT 10.0; Win64; x64) AppleWebKit/537.36 (KHTML, like Gecko) Chrome/125.0.0.0 Safari/537.36 Edg/125.0.0.0" version="24.4.7" etag="fQ4fxUxujHZHxd7ceCdF" type="github">
  <diagram name="Page-1" id="ACbxBL5YCVpf0dNCs3wn">
    <mxGraphModel>
      <root>
        <mxCell id="0" />
        <mxCell id="1" parent="0" />
      </root>
    </mxGraphModel>
  </diagram>
</mxfile>
